Coordinates
version=1
nRows=5
nColumns=40
inDegrees=yes

Units are S.I. units (second, meters, Newtons, ...)
If the header above contains a line with 'inDegrees', this indicates whether rotational values are in degrees (yes) or radians (no).

endheader
time	pelvis_tilt	pelvis_list	pelvis_rotation	pelvis_tx	pelvis_ty	pelvis_tz	hip_flexion_r	hip_adduction_r	hip_rotation_r	knee_angle_r	knee_angle_r_beta	ankle_angle_r	subtalar_angle_r	mtp_angle_r	hip_flexion_l	hip_adduction_l	hip_rotation_l	knee_angle_l	knee_angle_l_beta	ankle_angle_l	subtalar_angle_l	mtp_angle_l	lumbar_extension	lumbar_bending	lumbar_rotation	arm_flex_r	arm_add_r	arm_rot_r	elbow_flex_r	pro_sup_r	wrist_flex_r	wrist_dev_r	arm_flex_l	arm_add_l	arm_rot_l	elbow_flex_l	pro_sup_l	wrist_flex_l	wrist_dev_l
     15.22499999999999964473	      4.98429151038816176111	     -2.97185024090317151391	   -178.68841610207843473290	      0.25259311832264469411	      0.87784281389042417842	     -0.94366041247277054893	     21.41262830897927926799	    -34.37273499055593362073	    -29.11031483767646221850	     14.48642964204568350794	      0.25283589411220075416	    -21.51319540078612391198	      0.00000000000000000000	      0.00000000000000000000	     21.99200575765562248876	    -26.42037030911449235759	    -22.11407795335759374211	     15.54988385486740121166	      0.27139667157014424337	    -15.95993745888581294423	      0.00000000000000000000	      0.00000000000000000000	    -30.86884831333697576383	     -0.80003516490171167064	     -4.39331950197528264823	     28.68799437278258324113	    -12.86520104871902603350	     41.87793347328693016607	      7.69104096834708972352	     53.42428049618010987842	      0.00000000000000000000	      0.00000000000000000000	     35.11277387398447302758	    -17.77417795363532704300	     56.52233672483776416584	     19.54927509917552086449	     81.09556783434348403716	      0.00000000000000000000	      0.00000000000000000000
     15.23000000000000042633	      4.80512259044693834653	     -3.06763854425586268704	   -178.67988872522889209904	      0.25188643838766466843	      0.87828650214563797061	     -0.94369875305269157462	     21.19078143133192426717	    -34.46339887089156661659	    -29.04056979511899427848	     14.52586142798634760709	      0.25352410860680696381	    -21.38518843080169418158	      0.00000000000000000000	      0.00000000000000000000	     21.59026442427498437837	    -26.26730606497600106763	    -22.31278835229061030532	     15.29540503503976189847	      0.26695517828756248901	    -15.96035450712469128121	      0.00000000000000000000	      0.00000000000000000000	    -30.49831878863487588660	     -0.92659569556434207005	     -4.55240798922543632443	     28.39200907354615210920	    -12.78293811150281555911	     42.11732267187395706287	      7.69664904479491251976	     52.99099182299651289441	      0.00000000000000000000	      0.00000000000000000000	     34.65118816855247274589	    -17.97858241934666168049	     56.53448743776604601408	     19.86141729374913467154	     79.33050359667431905564	      0.00000000000000000000	      0.00000000000000000000
     15.23499999999999943157	      4.54682352936421807499	     -3.03634096612268677973	   -178.56513848558159907043	      0.25114864815082904581	      0.87889977547496289656	     -0.94343817334413371256	     20.62637002104415984149	    -34.40535686827224992612	    -29.28879112459199518526	     14.29886966446463425484	      0.24956235495844469874	    -21.39776730885879629795	      0.00000000000000000000	      0.00000000000000000000	     21.23993928500525996128	    -26.21610303524672502817	    -22.29697569758560860009	     15.13652772100294363611	      0.26418224605089501988	    -15.98972317334186143967	      0.00000000000000000000	      0.00000000000000000000	    -30.22886233515204779110	     -0.85165775970843959897	     -4.68652540333120892768	     28.43697864004761655110	    -12.79734638325974138695	     41.31202538145600300368	      6.99367881874048258339	     58.78218160559229943374	      0.00000000000000000000	      0.00000000000000000000	     34.28388304177114065396	    -17.92751604898231221341	     55.82157336063071539911	     19.73061042929080244335	     81.10495504806883104720	      0.00000000000000000000	      0.00000000000000000000
     15.24000000000000021316	      4.34431208040668614956	     -3.00109289123732247972	   -178.50204662289644375051	      0.25048868784826694434	      0.87939794791223602211	     -0.94339640556177950526	     20.21626701008064230791	    -34.33358188109887265682	    -29.35356000924283037534	     14.16717813603828801661	      0.24726390419042124091	    -21.40146990168767970886	      0.00000000000000000000	      0.00000000000000000000	     20.91428088344278890531	    -26.19171257516657647102	    -22.33383528137923690338	     14.95094217924948942766	      0.26094316730319983000	    -15.99822199028630542728	      0.00000000000000000000	      0.00000000000000000000	    -29.90096155427452373488	     -0.82136796390262667433	     -4.78168552178413452936	     28.03714828659791535870	    -12.84603118032348767485	     41.81818483768902439124	      7.35415696054249501401	     56.69599085664696502818	      0.00000000000000000000	      0.00000000000000000000	     33.84913044955936811675	    -18.05249452537801246876	     55.89347749212292626453	     20.01086703531698773872	     78.73109085942499518751	      0.00000000000000000000	      0.00000000000000000000
     15.24499999999999921840	      4.08050696995052675220	     -3.10126809516481172224	   -178.45657533574723174752	      0.24974684873605285107	      0.87993304348180068075	     -0.94330542065681388664	     19.82695126374990479690	    -34.44943481070902180363	    -29.51873709820340607735	     14.15960280613614585832	      0.24713168974170410253	    -21.29396035411042475971	      0.00000000000000000000	      0.00000000000000000000	     20.45248156638320580214	    -26.02201801864852015456	    -22.47112976492773128712	     14.71638560497925318771	      0.25684938279998559274	    -16.01999837165009665796	      0.00000000000000000000	      0.00000000000000000000	    -29.62511881864109142271	     -0.93715079070299533992	     -4.86529803054470288970	     27.77396493089334583715	    -12.88482238456201578458	     41.78283287668460843634	      7.28379639670702339060	     57.71574458678537666856	      0.00000000000000000000	      0.00000000000000000000	     33.62320552285825669969	    -18.15423337358539157549	     56.12905534668709606194	     20.04353144922989571342	     80.56357956319637025899	      0.00000000000000000000	      0.00000000000000000000
